Genre:Drama | Thriller
Language:English  http://www.imdb.com/title/tt1232838/
Source:720p.BluRay.x264-aAF
 
http://www.rapidhdd.com/images/749535vlcsnap-2010-11-29-08h00m35s60.png 
http://www.rapidhdd.com/images/410016vlcsnap-2010-11-29-08h00m57s18.png 
http://www.rapidhdd.com/images/331604vlcsnap-2010-11-29-08h02m16s38.png
 
http://www.youtube.com/watch?v=p1M2KVEWlSs&feature=player_embedded

General
Complete name :Triple.Dog.2010.480p.BRRip.H264.Feel-Free
Format : MPEG-4
Format profile : Base Media
Codec ID : mp42
File size : 1.19 GiB
Duration : 1h 32mn
Overall bit rate : 1 853 Kbps
Video #1
Codec ID : avc1
Codec ID/Info : Advanced Video Coding
Duration : 1h 32mn
Bit rate mode : Variable
Bit rate : 1 372 Kbps
Width : 720 pixels
Height : 384 pixels
Display aspect ratio : 1.875
Frame rate mode : Constant
Frame rate : 23.976 fps
Resolution : 24 bits
Colorimetry : 4:2:0
Scan type : Progressive
Bits/(Pixel*Frame) : 0.207
Stream size : 903 MiB (74%)
Audio #2
ID : 2
Format : AAC
Format/Info : Advanced Audio Codec
Format version : Version 4
Format profile : LC
Format settings, SBR : No
Codec ID : 40
Duration : 1h 32mn
Bit rate mode : Constant
Bit rate : 477 Kbps
Nominal bit rate : 480 Kbps
Channel(s) : 6 channels
Channel positions : Front: L C R, Rear: L R, LFE
Sampling rate : 48.0 KHz
Resolution : 16 bits
Stream size : 314 MiB (26%)

Plot:
On the night of a sleepover, a group of teenage girls venture out in a competitive game of challenging dares. As the antics escalate, and the dares become more extreme, the girls unravel the truth behind a former student's rumored suicide.

